<?xml version="1.0" standalone="no"?>
<!DOCTYPE svg PUBLIC "-//W3C//DTD SVG 20010904//EN"
 "http://www.w3.org/TR/2001/REC-SVG-20010904/DTD/svg10.dtd">
<svg version="1.0" xmlns="http://www.w3.org/2000/svg"
 width="1280.000000pt" height="998.000000pt" viewBox="0 0 1280.000000 998.000000"
 preserveAspectRatio="xMidYMid meet">
<metadata>
Created by potrace 1.15, written by Peter Selinger 2001-2017
</metadata>
<g transform="translate(0.000000,998.000000) scale(0.100000,-0.100000)"
fill="#2e186a" stroke="none">
<path d="M2098 9963 c-8 -10 -41 -62 -73 -116 -240 -413 -326 -802 -296 -1354
12 -222 34 -365 91 -587 68 -267 150 -495 273 -761 59 -129 191 -381 208 -399
17 -19 9 -64 -35 -193 -162 -473 -398 -781 -696 -910 -195 -84 -389 -100 -632
-52 -141 28 -253 70 -436 166 -89 46 -168 83 -174 81 -12 -4 -67 -292 -89
-465 -16 -129 -7 -559 15 -676 51 -277 171 -606 310 -857 35 -63 63 -117 61
-119 -2 -2 -73 34 -157 80 -361 195 -461 249 -464 249 -17 0 355 -748 487
-980 134 -236 317 -501 483 -700 476 -569 1048 -987 1714 -1250 100 -40 182
-75 182 -80 0 -4 -44 -10 -97 -13 -54 -4 -206 -20 -338 -37 -132 -17 -261 -33
-287 -37 -83 -10 -68 -21 97 -73 55 -17 291 -94 525 -170 506 -165 529 -172
690 -204 238 -48 341 -56 695 -56 329 0 458 7 653 37 l103 15 95 -101 c53 -55
135 -130 182 -166 84 -63 249 -155 277 -155 8 0 58 38 111 85 56 49 101 81
108 77 6 -4 50 -33 97 -64 363 -241 932 -236 1304 12 l89 60 31 -28 c16 -15
58 -53 92 -85 34 -31 68 -57 75 -57 24 0 155 67 235 121 43 29 132 106 199
171 l121 119 194 -21 c172 -19 235 -21 574 -17 358 3 389 5 528 30 244 44 257
48 782 219 220 72 456 148 525 170 154 49 170 55 170 67 0 12 -32 18 -160 31
-58 6 -179 19 -270 31 -91 11 -207 23 -258 26 -113 7 -110 17 21 63 729 259
1421 780 1926 1449 108 142 252 361 341 516 123 214 513 995 496 995 -3 0 -99
-51 -464 -249 -84 -46 -155 -81 -157 -79 -2 2 21 48 52 103 159 281 269 601
320 925 28 180 25 578 -6 765 -12 77 -27 176 -33 220 -5 44 -16 86 -23 94 -17
17 -27 13 -205 -81 -156 -82 -241 -116 -372 -147 -293 -71 -559 -38 -786 97
-80 48 -210 167 -283 258 -77 96 -170 257 -224 386 -49 115 -115 298 -115 318
0 6 26 57 59 113 278 483 484 1058 542 1517 19 144 19 655 0 770 -47 297 -152
580 -306 829 l-58 94 -96 -6 c-235 -15 -518 -97 -796 -231 -157 -76 -366 -197
-497 -288 -203 -140 -492 -382 -680 -567 l-98 -95 -62 21 c-35 11 -121 41
-193 66 -547 191 -1191 304 -1610 283 -77 -4 -345 -9 -595 -10 -362 -2 -480
-6 -575 -19 -362 -51 -720 -138 -1090 -267 -82 -28 -158 -54 -167 -57 -13 -4
-55 30 -145 117 -428 411 -885 726 -1283 884 -307 121 -707 200 -752 149z"/>
</g>
</svg>
